<?xml version="1.0" encoding="utf-8"?>
<!-- Generated by IcoMoon.io -->
<!DOCTYPE svg PUBLIC "-//W3C//DTD SVG 1.1//EN" "http://www.w3.org/Graphics/SVG/1.1/DTD/svg11.dtd">
<svg version="1.1" xmlns="http://www.w3.org/2000/svg" xmlns:xlink="http://www.w3.org/1999/xlink" width="42" height="42" viewBox="0 0 42 42">
<g id="icomoon-ignore">
</g>
<path d="M0 32.25v-22.5q0-2.789 1.98-4.77t4.77-1.98h22.5q2.789 0 4.77 1.98t1.98 4.77v22.5q0 2.789-1.98 4.77t-4.77 1.98h-4.5v-14.25h4.758l0.703-5.25h-5.461v-3.352q0-1.266 0.656-1.945t2.25-0.68l3.094-0.023v-4.852q-2.25-0.211-4.219-0.211-3.187 0-5.109 1.887t-1.922 5.285v3.891h-5.25v5.25h5.25v14.25h-12.75q-2.789 0-4.77-1.98t-1.98-4.77z" fill="#000000"></path>
</svg>
