<?xml version="1.0" encoding="utf-8"?>
<!-- Generated by IcoMoon.io -->
<!DOCTYPE svg PUBLIC "-//W3C//DTD SVG 1.1//EN" "http://www.w3.org/Graphics/SVG/1.1/DTD/svg11.dtd">
<svg version="1.1" xmlns="http://www.w3.org/2000/svg" xmlns:xlink="http://www.w3.org/1999/xlink" width="42" height="42" viewBox="0 0 42 42">
<g id="icomoon-ignore">
</g>
<path d="M0 34.383v-26.766q0-1.898 1.359-3.258t3.258-1.359h26.766q1.898 0 3.258 1.359t1.359 3.258v26.766q0 1.898-1.359 3.258t-3.258 1.359h-26.766q-1.898 0-3.258-1.359t-1.359-3.258zM4.008 33.422q0 0.609 0.41 1.020t1.020 0.41h25.055q0.586 0 1.008-0.41t0.422-1.020v-15.188h-3.164q0.469 1.477 0.469 3.070 0 2.953-1.5 5.449t-4.078 3.949-5.625 1.453q-4.617 0-7.898-3.176t-3.281-7.676q0-1.594 0.469-3.070h-3.305v15.188zM10.805 20.93q0 2.906 2.121 4.957t5.098 2.051q3 0 5.121-2.051t2.121-4.957-2.121-4.957-5.121-2.051q-2.977 0-5.098 2.051t-2.121 4.957zM24.609 12.492q0 0.68 0.469 1.148t1.148 0.469h4.078q0.68 0 1.148-0.469t0.469-1.148v-3.867q0-0.656-0.469-1.137t-1.148-0.48h-4.078q-0.68 0-1.148 0.48t-0.469 1.137v3.867z" fill="#000000"></path>
</svg>
